<svg version="1.1" id="a2c88306-fa03-4e5b-b192-401f0b77808b" xmlns="http://www.w3.org/2000/svg" x="0" y="0" viewBox="0 0 554.3 495.5" xml:space="preserve"><style>.st0{fill:#50e6ff}.st1{fill:#1490df}</style><path class="st0" d="M170 375.5l-18.2 18.2c-3.2 3.2-8.5 3.2-11.7 0L5.2 259.1c-6.5-6.4-6.5-16.9 0-23.4l18.3-18.3L170 363.7c3.3 3.2 3.3 8.5 0 11.8.1-.1.1-.1 0 0z"/><path class="st1" d="M149 102.7l18.3 18.2c3.2 3.2 3.2 8.5 0 11.7L23.2 277.1 4.9 258.9c-6.5-6.4-6.5-16.9 0-23.4l132.4-132.8c3.3-3.2 8.5-3.2 11.7 0z"/><path class="st0" d="M531 217.6l18.2 18.3c6.4 6.5 6.4 16.9 0 23.4L414.3 393.8c-3.2 3.2-8.5 3.2-11.7 0l-18.1-18.2c-3.2-3.2-3.2-8.5 0-11.7L531 217.6z"/><path class="st1" d="M549.4 258.8L531.1 277 387 132.5c-3.2-3.2-3.2-8.5 0-11.7l18.3-18.2c3.2-3.2 8.5-3.2 11.7 0l132.4 132.8c6.5 6.5 6.5 17 0 23.4z"/><linearGradient id="SVGID_1_" gradientUnits="userSpaceOnUse" x1="-24.67" y1="-80.022" x2="-24.67" y2="400.484" gradientTransform="matrix(1.156 0 0 -1.029 310.853 409.398)"><stop offset="0" stop-color="#fea11b"/><stop offset=".284" stop-color="#fea51a"/><stop offset=".547" stop-color="#feb018"/><stop offset=".8" stop-color="#ffc314"/><stop offset="1" stop-color="#ffd70f"/></linearGradient><path d="M260.4 276.1H149.2c-3.2.1-6-2.4-6.2-5.6 0-.8.2-1.6.6-2.3L276.9 4.3c1.2-2.1 3.4-3.4 5.8-3.3h131.6c3.2-.1 6 2.4 6.2 5.6 0 1.1-.4 2.2-1.1 3.1L262.7 216.2h152.7c3.2-.1 6 2.4 6.2 5.6 0 1.4-.6 2.8-1.6 3.8l-253.8 264c-2.4 1.4-19.3 15.5-11-5.9l105.2-207.6z" fill="url(#SVGID_1_)"/></svg>