<svg version="1.1" id="fd454f1c-5506-44b8-874e-8814b8b2f70b" xmlns="http://www.w3.org/2000/svg" x="0" y="0" viewBox="0 0 625.3 578" xml:space="preserve"><style>.st2{fill:#c3f1ff}.st3{fill:#9cebff}</style><linearGradient id="SVGID_1_" gradientUnits="userSpaceOnUse" x1="312.575" y1="-397.136" x2="312.575" y2="19.79" gradientTransform="matrix(1 0 0 -1 0 20)"><stop offset="0" stop-color="#0078d4"/><stop offset=".82" stop-color="#5ea0ef"/></linearGradient><path d="M20.7.2h583.7c11.5 0 20.8 9.3 20.8 20.8v375.2c0 11.5-9.3 20.8-20.8 20.8H20.7C9.2 417-.1 407.7-.1 396.2V21.1C-.1 9.5 9.2.2 20.7.2z" fill="url(#SVGID_1_)"/><path fill="#50e6ff" d="M416.8 147.9v121.2l-104.2 61.2V208.7z"/><path class="st2" d="M416.8 147.9L312.6 209l-104.3-61.1 104.3-60.8z"/><path class="st3" d="M312.6 209v121.3l-104.3-61.2V147.9z"/><path class="st2" d="M208.3 269.1l104.3-60.4v121.6z"/><path class="st3" d="M416.8 269.1l-104.2-60.4v121.6z"/><linearGradient id="SVGID_2_" gradientUnits="userSpaceOnUse" x1="312.575" y1="-558" x2="312.575" y2="-397.136" gradientTransform="matrix(1 0 0 -1 0 20)"><stop offset=".15" stop-color="#ccc"/><stop offset="1" stop-color="#707070"/></linearGradient><path d="M438 543.3c-61.8-9.7-64.3-54.2-64.3-126.1H251.1c0 71.9-2.1 116.4-63.9 126.1-17.7 2-31 17-30.9 34.7H469c0-17.8-13.3-32.8-31-34.7z" fill="url(#SVGID_2_)"/></svg>