<svg version="1.1" id="Layer_1" xmlns="http://www.w3.org/2000/svg" x="0" y="0" viewBox="0 0 945 583.2" xml:space="preserve"><style>.st0{fill:#e6e6e6}.st1{fill:#f2f2f2}.st2{fill:#9acaef}.st4{fill:#ffb7b7}.st5{fill:#2f2e41}.st6{fill:#cbcbcb}</style><path id="b0cf38c7-358d-48dc-a444-e9782686dfa5-4064" class="st0" d="M95.4 535.1c8 2.8 16.8 1.2 23.4-4.1 8.2-6.9 10.8-18.2 12.8-28.7l6.2-31-12.9 8.9c-9.3 6.4-18.8 13-25.3 22.3s-9.3 21.9-4.1 32"/><path id="acbbaa8b-0bc2-4bc9-96d7-93dd88f90f19-4065" class="st1" d="M97.4 574.8C95.8 563 94.1 551 95.2 539c1-10.6 4.3-21 10.9-29.6 3.5-4.5 7.8-8.4 12.6-11.4 1.3-.8 2.4 1.2 1.2 2-8.4 5.3-14.9 13.1-18.5 22.3-4 10.2-4.7 21.4-4 32.3.4 6.6 1.3 13.1 2.2 19.7.1.6-.2 1.2-.8 1.4-.6.1-1.2-.2-1.4-.9z"/><path id="bed63620-84ae-4c66-a7c8-0d9b30f8c1e7-4066" class="st0" d="M109.1 555.8c3.4 5.2 9.3 8.2 15.5 8 7.9-.4 14.4-5.9 20.3-11.1l17.5-15.4-11.5-.6c-8.3-.4-16.8-.8-24.7 1.8s-15.2 8.7-16.7 16.9"/><path id="fc4eb8ca-daad-4589-b224-2c71eec1c546-4067" class="st1" d="M92.8 581.7c7.8-13.9 16.9-29.3 33.2-34.2 4.5-1.4 9.3-1.9 14-1.4 1.5.1 1.1 2.4-.4 2.3-7.9-.7-15.7 1.4-22.3 5.9-6.3 4.3-11.2 10.2-15.3 16.5-2.5 3.9-4.8 7.9-7.1 11.9-.7 1.2-2.9.3-2.1-1z"/><path id="ec83fa9a-7bb4-4b90-a90b-e1cec4444963-4068" class="st0" d="M880.9 551.7c-4.6 4.2-11.1 5.6-17.1 3.8-7.5-2.4-12.4-9.4-16.8-15.9l-13-19.4 11.3 2.4c8.1 1.7 16.5 3.6 23.5 8.1s12.5 12.3 11.8 20.6"/><path id="e32935a9-e392-46b4-9a67-68c65f1cc9fa-4069" class="st1" d="M890 580.8c-4-15.4-8.9-32.6-23.3-41.6-4-2.5-8.5-4.2-13.1-5-1.5-.3-1.7 2-.2 2.3 7.8 1.4 14.9 5.4 20 11.4 5 5.7 8.2 12.7 10.6 19.9 1.5 4.4 2.6 8.9 3.8 13.3.3 1.5 2.6 1.2 2.2-.3z"/><path class="st0" d="M731.2 355.1H466.8c-4.4 0-8-3.6-8-8V258c0-4.4 3.6-8 8-8h264.3c4.4 0 8 3.6 8 8v89.2c0 4.3-3.5 7.9-7.9 7.9z"/><path class="st2" d="M500.3 273.9h70.1v8h-70.1z"/><circle class="st2" cx="662.7" cy="278.7" r="4.8"/><circle class="st2" cx="678.6" cy="278.7" r="4.8"/><circle class="st2" cx="694.5" cy="278.7" r="4.8"/><path class="st0" d="M731.2 468.1H466.8c-4.4 0-8-3.6-8-8V371c0-4.4 3.6-8 8-8h264.3c4.4 0 8 3.6 8 8v89.2c0 4.4-3.5 7.9-7.9 7.9z"/><path class="st2" d="M500.3 386.9h70.1v8h-70.1z"/><circle class="st2" cx="662.7" cy="391.7" r="4.8"/><circle class="st2" cx="678.6" cy="391.7" r="4.8"/><circle class="st2" cx="694.5" cy="391.7" r="4.8"/><path class="st0" d="M731.2 581.2H466.8c-4.4 0-8-3.6-8-8V484c0-4.4 3.6-8 8-8h264.3c4.4 0 8 3.6 8 8v89.2c0 4.4-3.5 8-7.9 8z"/><path class="st2" d="M500.3 500h70.1v8h-70.1z"/><circle class="st2" cx="662.7" cy="504.8" r="4.8"/><circle class="st2" cx="678.6" cy="504.8" r="4.8"/><circle class="st2" cx="694.5" cy="504.8" r="4.8"/><path d="M631.5 162.9l-.3-.2c-1.6-1.2-3.8-.8-5 .7l-59.5 80.1h-6.5V242c0-.8-.6-1.4-1.4-1.4h-3.9c-.8 0-1.4.6-1.4 1.4v1.5h-2.3V242c0-.8-.6-1.4-1.4-1.4h-3.9c-.8 0-1.4.6-1.4 1.4v1.5h-2.3V242c0-.8-.6-1.4-1.4-1.4h-3.9c-.8 0-1.4.6-1.4 1.4v1.5h-2.3V242c0-.8-.6-1.4-1.4-1.4h-3.9c-.8 0-1.4.6-1.4 1.4v1.5h-2.3V242c0-.8-.6-1.4-1.4-1.4h-3.9c-.8 0-1.4.6-1.4 1.4v1.5H515V242c0-.8-.6-1.4-1.4-1.4h-3.9c-.8 0-1.4.6-1.4 1.4v1.5H506V242c0-.8-.6-1.4-1.4-1.4h-3.9c-.8 0-1.4.6-1.4 1.4v1.5H497V242c0-.8-.6-1.4-1.4-1.4h-3.9c-.8 0-1.4.6-1.4 1.4v1.5H488V242c0-.8-.6-1.4-1.4-1.4h-3.9c-.8 0-1.4.6-1.4 1.4v1.5H479V242c0-.8-.6-1.4-1.4-1.4h-3.9c-.8 0-1.4.6-1.4 1.4v1.5h-2.8c-2 0-3.6 1.6-3.6 3.6v3.4c0 2 1.6 3.6 3.6 3.6h96.8c2.5 0 4.7-1.8 5.2-4.2l60.9-82c1-1.6.7-3.8-.9-5z" fill="#3f3d56"/><path class="st4" d="M255.5 550.8l12 6.2 29.5-43.5-17.8-9z"/><path class="st5" d="M254.4 545.3l23.7 12.1c8.3 4.3 11.6 14.5 7.4 22.8l-.3.5-38.8-19.8 8-15.6z"/><path class="st4" d="M394.3 567.7h13.5l6.4-52.1h-19.9z"/><path class="st5" d="M390.9 563.2h26.6c9.4 0 16.9 7.6 16.9 16.9v.6h-43.5v-17.5z"/><path class="st2" d="M331.2 142.9s-9-6.9-9 10l-1.4 55.9 15.9 52.8 9.3-17.1-3.8-37.1-11-64.5z"/><path class="st5" d="M427.9 295.8s10.5 51.1-2.8 93l-7.3 161.1-26.9-2.1-9.4-119.5-9.1-59.4-19 54.1-62.2 114.6-28.7-22.4s31.8-86.6 55.2-104.8l11.8-134 98.4 19.4z"/><circle transform="rotate(-61.333 396.014 43.874)" class="st4" cx="396" cy="43.9" r="30.7"/><path class="st5" d="M393.8 50.4c3.7.5 6.5-3.3 7.7-6.8s2.3-7.5 5.5-9.4c4.4-2.6 10 .5 15-.3 5.6-1 9.3-6.9 9.6-12.7s-2-11.2-4.2-16.5l-.8 6.5c.2-4.5-1.9-8.8-5.7-11.4l1 9.6C421 3.8 415.8.1 410.2 1l.2 5.7c-6.5-.8-13.1-1.6-19.6-1s-13.1 2.7-18.1 7c-7.4 6.4-10.1 17-9.2 26.8s4.9 19 9.1 27.8c1.1 2.2 2.5 4.8 5 5 2.2.3 4.2-1.6 4.9-3.7.5-2.2.5-4.4-.1-6.6-.6-3.3-1.4-6.7-.8-10s3-6.6 6.3-7 6.7 3.4 5.1 6.3l.8-.9z"/><path class="st6" d="M429.8 309.5l-102.4-6.6 7.7-32 93.6 20.9z"/><path class="st2" d="M366.6 85.8l6.4-8.9s7.2 2.4 26.4 12l1.4 8.4 33.4 205.3-60.7-2.6-16.5-.4-5.4-12.1-6.7 11.9-16.1-.3-16.4-9.5 16.2-49.5 5.2-45.2-8.1-42.6s-10.2-39.1 29-60.2l11.9-6.3z"/><path class="st4" d="M503.4 241.2c-5.6 1.4-11.3-2-12.7-7.6-.2-.6-.3-1.2-.3-1.8l-36-9.6 14.5-12.9 32 11.1c5.8 0 10.6 4.7 10.6 10.5-.1 4.9-3.4 9.1-8.1 10.3z"/><path class="st2" d="M487.2 235.7c-1.5.8-3.3 1-5 .4L423 213.7c-14.4-5.1-26.5-15.3-34-28.7l-24.7-44c-7.3-8.1-6.6-20.6 1.5-27.9s20.6-6.6 27.9 1.5v.1l42.7 67.7 53.8 31.5c2.2 1.4 3.2 4 2.6 6.5l-2.7 11.3c-.3 1.2-.9 2.3-1.9 3.2-.1.3-.5.6-1 .8z"/><path class="st6" d="M944 583H1c-.6 0-1-.4-1-1s.4-1 1-1h943c.6 0 1 .4 1 1s-.4 1-1 1z"/></svg>