<svg version="1.1" id="Layer_1" xmlns="http://www.w3.org/2000/svg" x="0" y="0" viewBox="0 0 635 634.7" xml:space="preserve"><style>.st0{fill:#669df6}.st1{fill:#4285f4}.st2{fill:#aecbfa}</style><path class="st0" d="M2 430.9l94.9 77.2V128.3L2 205.2z"/><path class="st1" d="M2 254.9l94.9-63.3v-63.3zm94.9 253.2v-63.3L2 381.5z"/><path class="st2" d="M191.9 571.4L2 381.5v126.6l126.6 126.6zM128.3 2L2 128.3l.3 126.6L191.6 65.3z"/><path class="st0" d="M635 205.8l-95-77.2v379.8l95-76.6z"/><path class="st1" d="M635 381.8l-95 63.3v63.3zm-95-253.2v63.3l95 63.3z"/><path class="st2" d="M445.1 65.3L635 255.2V128.6L508.4 2zm63.6 569.4L635 508.4l-.3-126.6-189.3 189.6z"/><circle id="Oval" class="st2" cx="191.9" cy="318.2" r="31.6"/><circle id="Oval-2" class="st2" cx="318.5" cy="318.2" r="31.6"/><circle id="Oval-3" class="st2" cx="444.8" cy="318.2" r="31.6"/></svg>