<svg version="1.1" id="Layer_1" xmlns="http://www.w3.org/2000/svg" x="0" y="0" viewBox="0 0 667 667" xml:space="preserve"><style>.st0{fill:#aecbfa}.st1{fill:#669df6}.st2{fill:#4285f4}</style><path class="st0" d="M234.8 234.8h199.5v199.5H234.8z"/><path class="st1" d="M301.3 2h66.5v133h-66.5zm-133 0h66.5v133h-66.5zm266 0h66.5v133h-66.5z"/><path class="st2" d="M301.3 534h66.5v133h-66.5zm-133 0h66.5v133h-66.5zm266 0h66.5v133h-66.5zM534 301.3h133v66.5H534zm0 133h133v66.5H534zm0-266h133v66.5H534z"/><path class="st1" d="M2 301.3h133v66.5H2zm0 133h133v66.5H2zm0-266h133v66.5H2z"/><path class="st0" d="M101.8 101.8v465.5h465.5V101.8H101.8zm399 399H168.3V168.3h332.5v332.5z"/><path class="st1" d="M234.8 434.3h199.5l-99.8-99.8z"/><path class="st2" d="M334.5 334.5l99.8 99.8V234.8z"/></svg>