<svg version="1.1" id="Layer_1" xmlns="http://www.w3.org/2000/svg" x="0" y="0" viewBox="0 0 637.8 636.2" xml:space="preserve"><style>.st0{fill:#f2f2f2}.st2{fill:#2f2e41}.st3{fill:#ffb6b6}.st4{fill:#9acaef}.st6{fill:#e6e6e6}</style><path class="st0" d="M541.9 283c-16 17.9-18.8 42-21.4 66.5-1.9 18.1-3.7 36.6-10.5 53-5.8 13.6-15 25.5-26.7 34.6-1 .8-2.1 1.6-3.2 2.4h-58.3c-.1-.8-.2-1.6-.2-2.4-2.5-29.9 4.3-59.8 19.4-85.6 6.1-10.1 13.4-19.5 21.8-27.8 9.1 15.9 20.3 31.2 20.3 31.2l-5.1-44.5c18.7-14.2 40.7-23.6 63.9-27.4z"/><path class="st0" d="M637.8 335.4c-38.8 15.5-50.2 65.4-81.8 92.8-3.9 3.4-8.1 6.4-12.6 9-1.4.8-2.9 1.6-4.4 2.4h-83.9l.6-2.4c8.9-34.7 31.1-66 61.3-85.4 1.2-.8 2.3-1.5 3.5-2.2 8.9-5.4 18.4-9.7 28.3-13 1.1 18.3 4.3 37 4.3 37l15.3-42.1c23.1-4.4 46.9-3.1 69.4 3.9z"/><path d="M637.7 438.3c0 .7-.5 1.2-1.2 1.2H1.2c-.7 0-1.2-.5-1.2-1.2s.5-1.2 1.2-1.2h635.3c.6 0 1.2.5 1.2 1.2z" fill="#ccc"/><path class="st2" d="M399.4 447.1h-111c-21.6 0-39.1-17.5-39.1-39s17.5-39.1 39-39.1h111c21.6 0 39.1 17.5 39.1 39s-17.4 39.1-39 39.1z"/><path class="st3" d="M297 589.5l15.1 10.8 48.8-53.2-22.3-15.9z"/><path class="st2" d="M296.6 581.8l4.3 3 21.4 5.1 4.1 13.1c10.5 7.5 12.9 22.1 5.4 32.5l-.4.6-48.8-34.8 14-19.5zM382.8 432l-14.5-21.3c-1.8-23.1 16-43.5 39.2-43.9 12.9-.3 25.5 5.9 32.3 26.9 17.3 53.8-98.6 178.4-98.6 178.4L317 559.8l-2.3-15 12.2-9-1-12.8 11.8-6.8 45.1-84.2z"/><path class="st4" d="M284 200.2l17.7-6.4 7.1-17 36.1-2.3 17.9 13.6 21.6 6.6s8.9 125.6 17 133.6.8 8.3 2.4 18.7 5.5 31.9 5.5 31.9c-54.3 28.7-101.1 29.5-138.7-4.1-1-4.3 1.1-8.7 5.1-10.6 7-3.7-6.5-21-.7-23.9s-2.3-28-2.3-28l5.3-52.4 6-59.7z"/><circle class="st3" cx="326.6" cy="131.5" r="35.4"/><path class="st3" d="M212.5 64.1c5.6 6.5 5 16.3-1.5 21.9-.7.6-1.4 1.1-2.2 1.6l11.3 54-26.7-10.6-6.6-49.7c-3.9-7.7-.9-17.1 6.8-21 6.4-3.2 14.2-1.7 18.9 3.8z"/><path class="st4" d="M243.9 221.5c18.3 8.6 36.8 16.9 44.2 19.2 10 3.2 20.7 2.8 30.5-1l.2-.1.1-.2c5.1-9.6 2.9-21.5-5.4-28.6-19.4-16.5-42.5-28.3-67.2-34.4l-14.1-3.5-18.1-70.7-27-2 10.8 99.3.4.2c.3.2 14 6.9 30.7 14.8l14.9 7z"/><path class="st2" d="M297.8 101c2.9-8.5 17.4-14.4 40.9-15.2 23.5-.8 29.5 26.9 29.5 26.9 15.7 12.7-16.8 46.8-18.3 45.6l.7-6.4c1.2-10.6 6.1-18.9-.2-29.9l-6.1.1-11.5 2.2c-1.8.3-3.5-.8-3.9-2.6-.2-1.2.2-2.3 1.1-3.1l.1-.1-.3-.4c-4.1 1.9-8.2 3.6-12.7 3.8-5 .3-10.4-1.7-12.8-6.1-.6-1.2-1-2.5-1.1-3.9-6.7 2.7-9.8 11-9.8 11s1.5-13.4 4.4-21.9z"/><path d="M279.1 29.1C275 14.1 262.3 3 246.8.9h-.5c-.2-.1-.4-.1-.7-.2-35.2-4.8-75.8 12.9-90.5 48.1-7.3-10.1-18.8-16.7-31.2-16-15.8.8-29.7 12.9-34 28.9-.5 2 .3 4 2 5.1 2.8 2.1 4.6 3.5 8 4.3 6.4 1.4 12.8 2.7 19.2 3.9 12.6 2.3 25.2 4.2 37.9 5.6 25.8 2.9 51.7 3.9 77.6 3.1 8.6-.3 16.9-.6 24.9-4.6 5.8-3 10.7-7.6 14.3-13.1 6.9-10.5 8.7-24.7 5.3-36.9z" fill="#3f3d56"/><path class="st4" d="M275.2 30.6c-1.9-6.5-5.7-12.3-10.9-16.7-5.4-4.4-12-7.2-18.9-8.1h-.4l-.4-.1c-.1 0-.3-.1-.4-.1-11.6-1.4-23.4-.5-34.7 2.5-21.7 5.7-42.3 19.2-51.9 41l-1.4 3.1-2-2.7c-6.8-8.9-16.9-14.1-27.3-14.1h-1.6c-14.5.7-27.5 11.2-31.5 25.4-.2 1 .3 2.1 1.2 2.6l.2.1c2.6 1.8 4.1 2.9 7 3.6 6.2 1.3 12.5 2.5 18.8 3.6 12.1 2.1 24.6 3.9 37 5.2 21.9 2.4 44 3.4 66 3.1 3.2 0 6.5-.1 9.7-.2 8.3-.3 16.1-.5 23.5-4.1 5.3-2.6 9.9-6.6 13.2-11.5 6.3-9.6 8.1-21.6 4.8-32.6z"/><path class="st3" d="M393.4 574.4l-14.2 12-53-48.9 20.9-17.8z"/><path class="st2" d="M408.7 585.1L363 623.8l-.5-.6c-8.3-9.8-7.1-24.5 2.7-32.9l3-13.4 20.9-6.9 4-3.4 15.6 18.5zM305.8 439l11.7-25.4c-.1-23.2-19.5-42-42.7-40.6-12.9.8-25 8-29.9 29.4-12.8 55.1 113 169.7 113 169.7l23.1-14.3 1.1-15.1-12.9-8v-12.9l-12.3-5.9-51.1-76.9z"/><path class="st6" d="M296.7 390v-88.3c0-3.7 3-6.7 6.7-6.7h66.7c3.7 0 6.7 3 6.7 6.7V390c0 3.7-3 6.7-6.7 6.7h-66.7c-3.7.1-6.7-2.9-6.7-6.7z"/><path d="M301.8 363.4v-56.8c0-3.5 2.8-6.3 6.3-6.3h57.3c3.5 0 6.3 2.8 6.3 6.3v78.6c0 3.5-2.8 6.3-6.3 6.3h-35.5c-15.5 0-28.1-12.6-28.1-28.1z" fill="#fff"/><path class="st6" d="M311.1 322.4c0-3.4 2.8-6.2 6.2-6.2H357c3.4 0 6.2 2.8 6.2 6.2s-2.8 6.2-6.2 6.2h-39.8c-3.4 0-6.1-2.8-6.1-6.2zm0 19.2c0-3.4 2.8-6.2 6.2-6.2H357c3.4 0 6.2 2.8 6.2 6.2s-2.8 6.2-6.2 6.2h-39.8c-3.4 0-6.1-2.8-6.1-6.2zm0 19.2c0-3.4 2.8-6.2 6.2-6.2H357c3.4 0 6.2 2.8 6.2 6.2s-2.8 6.2-6.2 6.2h-39.8c-3.4 0-6.1-2.8-6.1-6.2z"/><path class="st3" d="M356.2 397.7c-.3-8.6 6.4-15.8 15-16.1.9 0 1.8 0 2.7.1l25.2-49.1 14.1 25-26.2 42.8c-1.8 8.4-10.1 13.8-18.5 12.1-7-1.5-12.1-7.6-12.3-14.8z"/><path class="st4" d="M398.7 385.7l54.1-83.9-.2-.4c-.2-.4-12.5-26.9-24.3-51.2-1.8-3.7-3.6-7.4-5.4-10.9-.8-1.5-1.5-3-2.3-4.5-5-9.8-9.3-18-11.9-21.8-5.8-8.7-14.3-15.2-24.3-18.4l-.3-.1-.2.1c-10 4.2-15.8 14.9-13.8 25.6 4.7 25.1 15.2 48.7 30.6 69.1l8.8 11.6-30.5 66.3 19.7 18.5z"/></svg>