<?xml version="1.0" encoding="utf-8"?>
<!-- Generator: Adobe Illustrator 24.1.2, SVG Export Plug-In . SVG Version: 6.00 Build 0)  -->
<svg version="1.1" id="Layer_1" xmlns="http://www.w3.org/2000/svg" xmlns:xlink="http://www.w3.org/1999/xlink" x="0px" y="0px"
	 viewBox="0 0 637.8 636.2" style="enable-background:new 0 0 637.8 636.2;" xml:space="preserve">
<style type="text/css">
	.st0{fill:#F2F2F2;}
	.st1{fill:#CCCCCC;}
	.st2{fill:#2F2E41;}
	.st3{fill:#FFB6B6;}
	.st4{fill:#9ACAEF;}
	.st5{fill:#3F3D56;}
	.st6{fill:#E6E6E6;}
	.st7{fill:#FFFFFF;}
</style>
<path class="st0" d="M541.9,283c-16,17.9-18.8,42-21.4,66.5c-1.9,18.1-3.7,36.6-10.5,53c-5.8,13.6-15,25.5-26.7,34.6
	c-1,0.8-2.1,1.6-3.2,2.4h-58.3c-0.1-0.8-0.2-1.6-0.2-2.4c-2.5-29.9,4.3-59.8,19.4-85.6c6.1-10.1,13.4-19.5,21.8-27.8
	c9.1,15.9,20.3,31.2,20.3,31.2l-5.1-44.5C496.7,296.2,518.7,286.8,541.9,283z"/>
<path class="st0" d="M637.8,335.4c-38.8,15.5-50.2,65.4-81.8,92.8c-3.9,3.4-8.1,6.4-12.6,9c-1.4,0.8-2.9,1.6-4.4,2.4h-83.9
	c0.2-0.8,0.4-1.6,0.6-2.4c8.9-34.7,31.1-66,61.3-85.4c1.2-0.8,2.3-1.5,3.5-2.2c8.9-5.4,18.4-9.7,28.3-13c1.1,18.3,4.3,37,4.3,37
	l15.3-42.1C591.5,327.1,615.3,328.4,637.8,335.4z"/>
<path class="st1" d="M637.7,438.3c0,0.7-0.5,1.2-1.2,1.2l0,0H1.2c-0.7,0-1.2-0.5-1.2-1.2s0.5-1.2,1.2-1.2h635.3
	C637.1,437.1,637.7,437.6,637.7,438.3L637.7,438.3z"/>
<path class="st2" d="M399.4,447.1h-111c-21.6,0-39.1-17.5-39.1-39s17.5-39.1,39-39.1l0,0h111c21.6,0,39.1,17.5,39.1,39
	S421,447.1,399.4,447.1L399.4,447.1z"/>
<polygon class="st3" points="297,589.5 312.1,600.3 360.9,547.1 338.6,531.2 "/>
<path class="st2" d="M296.6,581.8l4.3,3l21.4,5.1l4.1,13.1l0,0c10.5,7.5,12.9,22.1,5.4,32.5l-0.4,0.6l-48.8-34.8L296.6,581.8z"/>
<path class="st2" d="M382.8,432l-14.5-21.3c-1.8-23.1,16-43.5,39.2-43.9c12.9-0.3,25.5,5.9,32.3,26.9
	c17.3,53.8-98.6,178.4-98.6,178.4L317,559.8l-2.3-15l12.2-9l-1-12.8l11.8-6.8L382.8,432z"/>
<path class="st4" d="M284,200.2l17.7-6.4l7.1-17l36.1-2.3l17.9,13.6l21.6,6.6c0,0,8.9,125.6,17,133.6s0.8,8.3,2.4,18.7
	s5.5,31.9,5.5,31.9c-54.3,28.7-101.1,29.5-138.7-4.1c-1-4.3,1.1-8.7,5.1-10.6c7-3.7-6.5-21-0.7-23.9s-2.3-28-2.3-28l5.3-52.4
	L284,200.2z"/>
<circle class="st3" cx="326.6" cy="131.5" r="35.4"/>
<path class="st3" d="M212.5,64.1c5.6,6.5,5,16.3-1.5,21.9c-0.7,0.6-1.4,1.1-2.2,1.6l11.3,54L193.4,131l-6.6-49.7
	c-3.9-7.7-0.9-17.1,6.8-21C200,57.1,207.8,58.6,212.5,64.1L212.5,64.1z"/>
<path class="st4" d="M243.9,221.5c18.3,8.6,36.8,16.9,44.2,19.2c10,3.2,20.7,2.8,30.5-1l0.2-0.1l0.1-0.2c5.1-9.6,2.9-21.5-5.4-28.6
	c-19.4-16.5-42.5-28.3-67.2-34.4l-14.1-3.5l-18.1-70.7l-27-2l10.8,99.3l0.4,0.2c0.3,0.2,14,6.9,30.7,14.8L243.9,221.5z"/>
<path class="st2" d="M297.8,101c2.9-8.5,17.4-14.4,40.9-15.2c23.5-0.8,29.5,26.9,29.5,26.9c15.7,12.7-16.8,46.8-18.3,45.6l0.7-6.4
	c1.2-10.6,6.1-18.9-0.2-29.9l-6.1,0.1l-11.5,2.2c-1.8,0.3-3.5-0.8-3.9-2.6c-0.2-1.2,0.2-2.3,1.1-3.1l0.1-0.1l-0.3-0.4
	c-4.1,1.9-8.2,3.6-12.7,3.8c-5,0.3-10.4-1.7-12.8-6.1c-0.6-1.2-1-2.5-1.1-3.9c-6.7,2.7-9.8,11-9.8,11S294.9,109.5,297.8,101z"/>
<path class="st5" d="M279.1,29.1C275,14.1,262.3,3,246.8,0.9c-0.2,0-0.3,0-0.5,0c-0.2-0.1-0.4-0.1-0.7-0.2
	c-35.2-4.8-75.8,12.9-90.5,48.1c-7.3-10.1-18.8-16.7-31.2-16c-15.8,0.8-29.7,12.9-34,28.9c-0.5,2,0.3,4,2,5.1c2.8,2.1,4.6,3.5,8,4.3
	c6.4,1.4,12.8,2.7,19.2,3.9c12.6,2.3,25.2,4.2,37.9,5.6c25.8,2.9,51.7,3.9,77.6,3.1c8.6-0.3,16.9-0.6,24.9-4.6
	c5.8-3,10.7-7.6,14.3-13.1C280.7,55.5,282.5,41.3,279.1,29.1z"/>
<path class="st4" d="M275.2,30.6c-1.9-6.5-5.7-12.3-10.9-16.7c-5.4-4.4-12-7.2-18.9-8.1H245l-0.4-0.1c-0.1,0-0.3-0.1-0.4-0.1
	c-11.6-1.4-23.4-0.5-34.7,2.5c-21.7,5.7-42.3,19.2-51.9,41l-1.4,3.1l-2-2.7c-6.8-8.9-16.9-14.1-27.3-14.1c-0.5,0-1,0-1.6,0
	c-14.5,0.7-27.5,11.2-31.5,25.4c-0.2,1,0.3,2.1,1.2,2.6l0.2,0.1c2.6,1.8,4.1,2.9,7,3.6c6.2,1.3,12.5,2.5,18.8,3.6
	c12.1,2.1,24.6,3.9,37,5.2c21.9,2.4,44,3.4,66,3.1c3.2,0,6.5-0.1,9.7-0.2c8.3-0.3,16.1-0.5,23.5-4.1c5.3-2.6,9.9-6.6,13.2-11.5
	C276.7,53.6,278.5,41.6,275.2,30.6z"/>
<polygon class="st3" points="393.4,574.4 379.2,586.4 326.2,537.5 347.1,519.7 "/>
<path class="st2" d="M408.7,585.1L363,623.8l-0.5-0.6c-8.3-9.8-7.1-24.5,2.7-32.9l0,0l3-13.4l20.9-6.9l4-3.4L408.7,585.1z"/>
<path class="st2" d="M305.8,439l11.7-25.4c-0.1-23.2-19.5-42-42.7-40.6c-12.9,0.8-25,8-29.9,29.4c-12.8,55.1,113,169.7,113,169.7
	l23.1-14.3l1.1-15.1l-12.9-8v-12.9l-12.3-5.9L305.8,439z"/>
<path class="st6" d="M296.7,390v-88.3c0-3.7,3-6.7,6.7-6.7h66.7c3.7,0,6.7,3,6.7,6.7V390c0,3.7-3,6.7-6.7,6.7h-66.7
	C299.7,396.8,296.7,393.8,296.7,390z"/>
<path class="st7" d="M301.8,363.4v-56.8c0-3.5,2.8-6.3,6.3-6.3h57.3c3.5,0,6.3,2.8,6.3,6.3v78.6c0,3.5-2.8,6.3-6.3,6.3h-35.5
	C314.4,391.5,301.8,378.9,301.8,363.4z"/>
<path class="st6" d="M311.1,322.4c0-3.4,2.8-6.2,6.2-6.2H357c3.4,0,6.2,2.8,6.2,6.2s-2.8,6.2-6.2,6.2h-39.8
	C313.8,328.6,311.1,325.8,311.1,322.4z"/>
<path class="st6" d="M311.1,341.6c0-3.4,2.8-6.2,6.2-6.2H357c3.4,0,6.2,2.8,6.2,6.2s-2.8,6.2-6.2,6.2h-39.8
	C313.8,347.8,311.1,345,311.1,341.6z"/>
<path class="st6" d="M311.1,360.8c0-3.4,2.8-6.2,6.2-6.2H357c3.4,0,6.2,2.8,6.2,6.2s-2.8,6.2-6.2,6.2h-39.8
	C313.8,367,311.1,364.2,311.1,360.8z"/>
<path class="st3" d="M356.2,397.7c-0.3-8.6,6.4-15.8,15-16.1c0.9,0,1.8,0,2.7,0.1l25.2-49.1l14.1,25L387,400.4
	c-1.8,8.4-10.1,13.8-18.5,12.1C361.5,411,356.4,404.9,356.2,397.7L356.2,397.7z"/>
<path class="st4" d="M398.7,385.7l54.1-83.9l-0.2-0.4c-0.2-0.4-12.5-26.9-24.3-51.2c-1.8-3.7-3.6-7.4-5.4-10.9
	c-0.8-1.5-1.5-3-2.3-4.5c-5-9.8-9.3-18-11.9-21.8c-5.8-8.7-14.3-15.2-24.3-18.4l-0.3-0.1l-0.2,0.1c-10,4.2-15.8,14.9-13.8,25.6
	c4.7,25.1,15.2,48.7,30.6,69.1l8.8,11.6L379,367.2L398.7,385.7z"/>
</svg>
