<?xml version="1.0" encoding="utf-8"?>
<!-- Generator: Adobe Illustrator 24.1.2, SVG Export Plug-In . SVG Version: 6.00 Build 0)  -->
<svg version="1.1" id="Layer_1" xmlns="http://www.w3.org/2000/svg" xmlns:xlink="http://www.w3.org/1999/xlink" x="0px" y="0px"
	 viewBox="0 0 945 583.2" style="enable-background:new 0 0 945 583.2;" xml:space="preserve">
<style type="text/css">
	.st0{fill:#E6E6E6;}
	.st1{fill:#F2F2F2;}
	.st2{fill:#9ACAEF;}
	.st3{fill:#3F3D56;}
	.st4{fill:#FFB7B7;}
	.st5{fill:#2F2E41;}
	.st6{fill:#CBCBCB;}
</style>
<path id="b0cf38c7-358d-48dc-a444-e9782686dfa5-4064" class="st0" d="M95.4,535.1c8,2.8,16.8,1.2,23.4-4.1
	c8.2-6.9,10.8-18.2,12.8-28.7l6.2-31l-12.9,8.9c-9.3,6.4-18.8,13-25.3,22.3s-9.3,21.9-4.1,32"/>
<path id="acbbaa8b-0bc2-4bc9-96d7-93dd88f90f19-4065" class="st1" d="M97.4,574.8C95.8,563,94.1,551,95.2,539
	c1-10.6,4.3-21,10.9-29.6c3.5-4.5,7.8-8.4,12.6-11.4c1.3-0.8,2.4,1.2,1.2,2c-8.4,5.3-14.9,13.1-18.5,22.3c-4,10.2-4.7,21.4-4,32.3
	c0.4,6.6,1.3,13.1,2.2,19.7c0.1,0.6-0.2,1.2-0.8,1.4C98.2,575.8,97.6,575.5,97.4,574.8L97.4,574.8z"/>
<path id="bed63620-84ae-4c66-a7c8-0d9b30f8c1e7-4066" class="st0" d="M109.1,555.8c3.4,5.2,9.3,8.2,15.5,8
	c7.9-0.4,14.4-5.9,20.3-11.1l17.5-15.4l-11.5-0.6c-8.3-0.4-16.8-0.8-24.7,1.8s-15.2,8.7-16.7,16.9"/>
<path id="fc4eb8ca-daad-4589-b224-2c71eec1c546-4067" class="st1" d="M92.8,581.7c7.8-13.9,16.9-29.3,33.2-34.2
	c4.5-1.4,9.3-1.9,14-1.4c1.5,0.1,1.1,2.4-0.4,2.3c-7.9-0.7-15.7,1.4-22.3,5.9c-6.3,4.3-11.2,10.2-15.3,16.5
	c-2.5,3.9-4.8,7.9-7.1,11.9C94.2,583.9,92,583,92.8,581.7z"/>
<path id="ec83fa9a-7bb4-4b90-a90b-e1cec4444963-4068" class="st0" d="M880.9,551.7c-4.6,4.2-11.1,5.6-17.1,3.8
	c-7.5-2.4-12.4-9.4-16.8-15.9l-13-19.4l11.3,2.4c8.1,1.7,16.5,3.6,23.5,8.1s12.5,12.3,11.8,20.6"/>
<path id="e32935a9-e392-46b4-9a67-68c65f1cc9fa-4069" class="st1" d="M890,580.8c-4-15.4-8.9-32.6-23.3-41.6c-4-2.5-8.5-4.2-13.1-5
	c-1.5-0.3-1.7,2-0.2,2.3c7.8,1.4,14.9,5.4,20,11.4c5,5.7,8.2,12.7,10.6,19.9c1.5,4.4,2.6,8.9,3.8,13.3
	C888.1,582.6,890.4,582.3,890,580.8z"/>
<path class="st0" d="M731.2,355.1H466.8c-4.4,0-8-3.6-8-8V258c0-4.4,3.6-8,8-8h264.3c4.4,0,8,3.6,8,8v89.2
	C739.1,351.5,735.6,355.1,731.2,355.1z"/>
<rect x="500.3" y="273.9" class="st2" width="70.1" height="8"/>
<circle class="st2" cx="662.7" cy="278.7" r="4.8"/>
<circle class="st2" cx="678.6" cy="278.7" r="4.8"/>
<circle class="st2" cx="694.5" cy="278.7" r="4.8"/>
<path class="st0" d="M731.2,468.1H466.8c-4.4,0-8-3.6-8-8V371c0-4.4,3.6-8,8-8h264.3c4.4,0,8,3.6,8,8v89.2
	C739.1,464.6,735.6,468.1,731.2,468.1z"/>
<rect x="500.3" y="386.9" class="st2" width="70.1" height="8"/>
<circle class="st2" cx="662.7" cy="391.7" r="4.8"/>
<circle class="st2" cx="678.6" cy="391.7" r="4.8"/>
<circle class="st2" cx="694.5" cy="391.7" r="4.8"/>
<path class="st0" d="M731.2,581.2H466.8c-4.4,0-8-3.6-8-8V484c0-4.4,3.6-8,8-8h264.3c4.4,0,8,3.6,8,8v89.2
	C739.1,577.6,735.6,581.2,731.2,581.2z"/>
<rect x="500.3" y="500" class="st2" width="70.1" height="8"/>
<circle class="st2" cx="662.7" cy="504.8" r="4.8"/>
<circle class="st2" cx="678.6" cy="504.8" r="4.8"/>
<circle class="st2" cx="694.5" cy="504.8" r="4.8"/>
<path class="st3" d="M631.5,162.9l-0.3-0.2l0,0c-1.6-1.2-3.8-0.8-5,0.7l0,0l-59.5,80.1h-6.5V242c0-0.8-0.6-1.4-1.4-1.4h-3.9
	c-0.8,0-1.4,0.6-1.4,1.4v1.5h-2.3V242c0-0.8-0.6-1.4-1.4-1.4h-3.9c-0.8,0-1.4,0.6-1.4,1.4v1.5h-2.3V242c0-0.8-0.6-1.4-1.4-1.4h-3.9
	c-0.8,0-1.4,0.6-1.4,1.4v1.5h-2.3V242c0-0.8-0.6-1.4-1.4-1.4h-3.9c-0.8,0-1.4,0.6-1.4,1.4v1.5h-2.3V242c0-0.8-0.6-1.4-1.4-1.4h-3.9
	c-0.8,0-1.4,0.6-1.4,1.4l0,0v1.5H515V242c0-0.8-0.6-1.4-1.4-1.4h-3.9c-0.8,0-1.4,0.6-1.4,1.4v1.5H506V242c0-0.8-0.6-1.4-1.4-1.4
	h-3.9c-0.8,0-1.4,0.6-1.4,1.4v1.5H497V242c0-0.8-0.6-1.4-1.4-1.4h-3.9c-0.8,0-1.4,0.6-1.4,1.4v1.5H488V242c0-0.8-0.6-1.4-1.4-1.4
	h-3.9c-0.8,0-1.4,0.6-1.4,1.4v1.5H479V242c0-0.8-0.6-1.4-1.4-1.4h-3.9c-0.8,0-1.4,0.6-1.4,1.4v1.5h-2.8c-2,0-3.6,1.6-3.6,3.6l0,0
	v3.4c0,2,1.6,3.6,3.6,3.6l0,0h96.8c2.5,0,4.7-1.8,5.2-4.2l0,0l60.9-82l0,0C633.4,166.3,633.1,164.1,631.5,162.9z"/>
<polygon class="st4" points="255.5,550.8 267.5,557 297,513.5 279.2,504.5 "/>
<path class="st5" d="M254.4,545.3l23.7,12.1l0,0c8.3,4.3,11.6,14.5,7.4,22.8l-0.3,0.5l-38.8-19.8L254.4,545.3z"/>
<polygon class="st4" points="394.3,567.7 407.8,567.7 414.2,515.6 394.3,515.6 "/>
<path class="st5" d="M390.9,563.2h26.6l0,0c9.4,0,16.9,7.6,16.9,16.9v0.6h-43.5V563.2z"/>
<path class="st2" d="M331.2,142.9c0,0-9-6.9-9,10l-1.4,55.9l15.9,52.8l9.3-17.1l-3.8-37.1L331.2,142.9z"/>
<path class="st5" d="M427.9,295.8c0,0,10.5,51.1-2.8,93l-7.3,161.1l-26.9-2.1l-9.4-119.5l-9.1-59.4l-19,54.1l-62.2,114.6l-28.7-22.4
	c0,0,31.8-86.6,55.2-104.8l11.8-134L427.9,295.8z"/>
<ellipse transform="matrix(0.4797 -0.8774 0.8774 0.4797 167.5399 370.2884)" class="st4" cx="396" cy="43.9" rx="30.7" ry="30.7"/>
<path class="st5" d="M393.8,50.4c3.7,0.5,6.5-3.3,7.7-6.8s2.3-7.5,5.5-9.4c4.4-2.6,10,0.5,15-0.3c5.6-1,9.3-6.9,9.6-12.7
	s-2-11.2-4.2-16.5l-0.8,6.5c0.2-4.5-1.9-8.8-5.7-11.4l1,9.6c-0.9-5.6-6.1-9.3-11.7-8.4l0,0l0.2,5.7c-6.5-0.8-13.1-1.6-19.6-1
	s-13.1,2.7-18.1,7c-7.4,6.4-10.1,17-9.2,26.8s4.9,19,9.1,27.8c1.1,2.2,2.5,4.8,5,5c2.2,0.3,4.2-1.6,4.9-3.7c0.5-2.2,0.5-4.4-0.1-6.6
	c-0.6-3.3-1.4-6.7-0.8-10s3-6.6,6.3-7s6.7,3.4,5.1,6.3L393.8,50.4z"/>
<polygon class="st6" points="429.8,309.5 327.4,302.9 335.1,270.9 428.7,291.8 "/>
<path class="st2" d="M366.6,85.8l6.4-8.9c0,0,7.2,2.4,26.4,12l1.4,8.4l33.4,205.3l-60.7-2.6l-16.5-0.4l-5.4-12.1l-6.7,11.9
	l-16.1-0.3l-16.4-9.5l16.2-49.5l5.2-45.2l-8.1-42.6c0,0-10.2-39.1,29-60.2L366.6,85.8z"/>
<path class="st4" d="M503.4,241.2c-5.6,1.4-11.3-2-12.7-7.6c-0.2-0.6-0.3-1.2-0.3-1.8l-36-9.6l14.5-12.9l32,11.1
	c5.8,0,10.6,4.7,10.6,10.5C511.4,235.8,508.1,240,503.4,241.2L503.4,241.2z"/>
<path class="st2" d="M487.2,235.7c-1.5,0.8-3.3,1-5,0.4L423,213.7c-14.4-5.1-26.5-15.3-34-28.7l-24.7-44c-7.3-8.1-6.6-20.6,1.5-27.9
	s20.6-6.6,27.9,1.5c0,0,0,0,0,0.1l42.7,67.7l53.8,31.5c2.2,1.4,3.2,4,2.6,6.5l-2.7,11.3c-0.3,1.2-0.9,2.3-1.9,3.2
	C488.1,235.2,487.7,235.5,487.2,235.7z"/>
<path class="st6" d="M944,583H1c-0.6,0-1-0.4-1-1s0.4-1,1-1h943c0.6,0,1,0.4,1,1S944.6,583,944,583z"/>
</svg>
