<?xml version="1.0" encoding="utf-8"?>
<!-- Generator: Adobe Illustrator 24.1.2, SVG Export Plug-In . SVG Version: 6.00 Build 0)  -->
<svg version="1.1" id="Layer_1" xmlns="http://www.w3.org/2000/svg" xmlns:xlink="http://www.w3.org/1999/xlink" x="0px" y="0px"
	 viewBox="0 0 635 634.7" style="enable-background:new 0 0 635 634.7;" xml:space="preserve">
<style type="text/css">
	.st0{fill:#669DF6;}
	.st1{fill:#4285F4;}
	.st2{fill:#AECBFA;}
</style>
<g>
	<g>
		<g>
			<polygon class="st0" points="2,430.9 96.9,508.1 96.9,128.3 2,205.2 			"/>
			<polygon class="st1" points="2,254.9 96.9,191.6 96.9,128.3 			"/>
			<polygon class="st1" points="96.9,508.1 96.9,444.8 2,381.5 			"/>
			<polygon class="st2" points="191.9,571.4 2,381.5 2,508.1 128.6,634.7 			"/>
		</g>
	</g>
	<polygon class="st2" points="128.3,2 2,128.3 2.3,254.9 191.6,65.3 	"/>
	<g>
		<g>
			<polygon class="st0" points="635,205.8 540,128.6 540,508.4 635,431.8 			"/>
			<polygon class="st1" points="635,381.8 540,445.1 540,508.4 			"/>
			<polygon class="st1" points="540,128.6 540,191.9 635,255.2 			"/>
			<polygon class="st2" points="445.1,65.3 635,255.2 635,128.6 508.4,2 			"/>
		</g>
	</g>
	<polygon class="st2" points="508.7,634.7 635,508.4 634.7,381.8 445.4,571.4 	"/>
	<circle id="Oval" class="st2" cx="191.9" cy="318.2" r="31.6"/>
	<circle id="Oval-2" class="st2" cx="318.5" cy="318.2" r="31.6"/>
	<circle id="Oval-3" class="st2" cx="444.8" cy="318.2" r="31.6"/>
</g>
</svg>
